<svg width="151" height="48" viewBox="0 0 151 48" fill="none" xmlns="http://www.w3.org/2000/svg">
<path d="M13.8253 18.3215H13.7239C15.798 14.2447 20.0332 11.4511 24.9209 11.4511C28.0738 11.4511 30.9545 12.6129 33.1593 14.532H33.2363H38.2405C35.2777 10.3738 30.4159 7.6615 24.9209 7.6615C16.5351 7.6615 9.62526 13.9766 8.68625 22.1111L19.2374 22.1103V25.899H8.68457L8.68876 25.9283C8.84205 27.2351 9.14947 28.4941 9.59175 29.6886H19.2357V39.3325C20.4378 39.7782 21.7085 40.0873 23.0244 40.2397V29.6894H26.8132V40.2405C28.13 40.0881 29.3999 39.7798 30.6019 39.3334V29.6886H40.2459C40.9026 27.9186 41.2611 26.0037 41.2611 24.005C41.2611 22.0064 40.9026 20.0915 40.2459 18.3215H38.0018H13.8253ZM26.814 25.8998H23.0253V22.1111H26.814V25.8998ZM37.3316 25.8998H30.6036V22.1111H37.3316C37.4255 22.7293 37.474 23.3617 37.474 24.0059C37.474 24.6492 37.4255 25.2816 37.3316 25.8998Z" fill="white"/>
<path d="M24.9081 0.0446167C11.6748 0.0446167 0.947754 10.7725 0.947754 24.005C0.947754 37.2375 11.6748 47.9654 24.9081 47.9654C38.1415 47.9654 48.8685 37.2375 48.8685 24.005C48.8685 10.7725 38.1415 0.0446167 24.9081 0.0446167ZM24.9081 44.1699C13.7715 44.1699 4.74318 35.1417 4.74318 24.005C4.74318 12.8683 13.7715 3.84005 24.9081 3.84005C36.0448 3.84005 45.0731 12.8683 45.0731 24.005C45.0731 35.1417 36.0448 44.1699 24.9081 44.1699Z" fill="white"/>
<path d="M70.7037 20.9809C65.3996 19.6222 64.0845 18.9647 64.0845 16.9484V16.8605C64.0845 15.3703 65.4432 14.1875 68.0298 14.1875C70.6157 14.1875 73.2895 15.3267 76.0077 17.2115L79.5141 12.1277C76.4022 9.62897 72.5884 8.22589 68.1178 8.22589C61.8496 8.22589 57.379 11.9082 57.379 17.4753V17.5624C57.379 23.6556 61.368 25.3652 67.5482 26.9425C72.6763 28.2577 73.7284 29.1347 73.7284 30.8435V30.9315C73.7284 32.7282 72.0632 33.8247 69.3014 33.8247C65.795 33.8247 62.9017 32.3781 60.1408 30.098L56.1519 34.876C59.8342 38.163 64.5242 39.7855 69.1699 39.7855C75.7882 39.7855 80.4347 36.3662 80.4347 30.2739V30.1859C80.4339 24.8383 76.9275 22.6026 70.7037 20.9809Z" fill="white"/>
<path d="M129.903 8.66412V14.8879H136.868V39.3467H143.618V14.8879H150.583V8.66412H129.903Z" fill="white"/>
<path d="M108.168 14.8879H115.133V39.3467H121.883V14.8879H128.848V8.66412H108.168V14.8879Z" fill="white"/>
<path d="M99.7912 16.2272C98.1109 15.3745 96.2111 14.8928 94.2007 14.8928C87.3654 14.8928 81.8042 20.454 81.8042 27.2893C81.8042 34.1246 87.3654 39.6858 94.2007 39.6858C96.2111 39.6858 98.1101 39.2042 99.7912 38.3514V39.6858H106.597V14.8928H99.7912V16.2272ZM94.2007 32.8807C91.1181 32.8807 88.6102 30.3727 88.6102 27.2902C88.6102 24.2067 91.1181 21.6996 94.2007 21.6996C97.2833 21.6996 99.7912 24.2076 99.7912 27.2902C99.7912 30.3727 97.2824 32.8807 94.2007 32.8807Z" fill="white"/>
</svg>
